<mxfile host="app.diagrams.net" modified="2024-04-07T14:23:07.126Z" agent="Mozilla/5.0 (Windows NT 10.0; Win64; x64) AppleWebKit/537.36 (KHTML, like Gecko) Chrome/121.0.0.0 Safari/537.36 OPR/107.0.0.0 (Edition Yx GX 03)" version="22.1.21" etag="B1MgMC8qTHUkTFszL8w4" type="github">
  <diagram name="Страница — 1" id="sdsFMqNDM_8VvwsMxaB9">
    <mxGraphModel>
      <root>
        <mxCell id="0" />
        <mxCell id="1" parent="0" />
      </root>
    </mxGraphModel>
  </diagram>
</mxfile>
